<svg width="10" height="10" viewBox="0 0 10 10" fill="none" xmlns="http://www.w3.org/2000/svg">
<path d="M9.77816 0.229417C9.63646 0.0873971 9.44408 0.00758438 9.24346 0.00758438C9.04284 0.00758438 8.85046 0.0873971 8.70876 0.229417L5 3.9306L1.29124 0.221832C1.14954 0.0798127 0.957162 0 0.756541 0C0.555921 0 0.363543 0.0798127 0.221843 0.221832C-0.0739477 0.517623 -0.0739477 0.99544 0.221843 1.29123L3.9306 4.99999L0.221843 8.70876C-0.0739477 9.00455 -0.0739477 9.48237 0.221843 9.77816C0.517634 10.0739 0.995449 10.0739 1.29124 9.77816L5 6.06939L8.70876 9.77816C9.00455 10.0739 9.48237 10.0739 9.77816 9.77816C10.0739 9.48237 10.0739 9.00455 9.77816 8.70876L6.0694 4.99999L9.77816 1.29123C10.0664 1.00302 10.0664 0.517623 9.77816 0.229417Z" fill="#6D7D8B"/>
</svg>
